<?xml version="1.0" standalone="no"?>
<!DOCTYPE svg PUBLIC "-//W3C//DTD SVG 20010904//EN"
 "http://www.w3.org/TR/2001/REC-SVG-20010904/DTD/svg10.dtd">
<svg version="1.0" xmlns="http://www.w3.org/2000/svg"
 width="256.000000pt" height="256.000000pt" viewBox="0 0 256.000000 256.000000"
 preserveAspectRatio="xMidYMid meet">

<g transform="translate(0.000000,256.000000) scale(0.100000,-0.100000)"
fill="#000000" stroke="none">
<path d="M0 1280 l0 -1110 1280 0 1280 0 0 1110 0 1110 -1280 0 -1280 0 0
-1110z m2480 476 c0 -304 -3 -581 -6 -615 l-7 -61 -1187 0 -1187 0 -7 61 c-3
34 -6 311 -6 615 l0 554 1200 0 1200 0 0 -554z m-600 -805 l115 -39 -812 -1
-813 -1 0 -45 0 -45 1050 0 1050 0 0 -35 0 -35 -1190 0 -1190 0 0 35 0 35 60
0 60 0 0 45 0 45 -60 0 -60 0 0 40 0 40 838 0 838 0 114 -39z m385 9 c-9 -16
-19 -30 -23 -30 -4 0 -46 13 -92 29 l-85 29 108 1 108 1 -16 -30z m205 -10 l0
-40 -65 0 -65 0 20 40 c19 38 23 40 65 40 l45 0 0 -40z m0 -330 l0 -40 -60 0
-60 0 0 -45 0 -45 60 0 60 0 0 -35 0 -35 -962 1 -963 1 100 34 99 34 723 0
723 0 0 45 0 45 -1050 0 -1050 0 0 40 0 40 1190 0 1190 0 0 -40z m-2315 -160
c21 -40 20 -40 -25 -40 -39 0 -40 1 -40 35 0 31 3 35 25 35 17 0 29 -9 40 -30z
m223 5 c-113 -40 -105 -39 -123 -6 l-16 31 103 -1 103 0 -67 -24z m2092 -175
l0 -40 -1190 0 -1190 0 0 40 0 40 1190 0 1190 0 0 -40z"/>
<path d="M160 2085 l0 -145 45 0 45 0 0 105 0 105 105 0 105 0 0 40 0 40 -150
0 -150 0 0 -145z"/>
<path d="M1150 2214 c-211 -55 -371 -235 -402 -450 -24 -165 33 -327 156 -449
85 -84 168 -127 290 -151 81 -16 91 -16 174 0 77 15 205 66 217 87 3 4 -4 23
-15 41 l-20 34 -67 -33 c-91 -45 -183 -60 -272 -44 -306 55 -470 377 -331 651
119 236 429 315 653 166 210 -139 259 -423 109 -640 l-26 -38 29 -24 c17 -13
33 -24 38 -24 16 0 88 126 107 186 45 146 35 272 -33 407 -111 223 -371 343
-607 281z"/>
<path d="M2100 2190 l0 -40 105 0 105 0 0 -105 0 -105 45 0 45 0 0 145 0 145
-150 0 -150 0 0 -40z"/>
<path d="M1240 2025 c0 -42 -2 -46 -39 -64 -42 -22 -75 -67 -86 -118 -19 -92
67 -193 166 -193 40 0 79 -39 79 -80 0 -41 -39 -80 -80 -80 -33 0 -80 38 -80
65 0 11 -11 15 -45 15 -50 0 -52 -4 -30 -58 20 -46 48 -77 86 -92 26 -11 29
-17 29 -56 l0 -44 40 0 40 0 0 44 c0 39 3 45 30 56 40 16 77 61 91 110 30 101
-62 210 -178 210 -28 0 -63 45 -63 79 0 30 28 66 60 76 33 11 77 -13 95 -51
15 -32 20 -35 53 -32 35 3 37 5 34 33 -5 45 -40 93 -83 116 -37 18 -39 22 -39
64 l0 45 -40 0 -40 0 0 -45z"/>
<path d="M910 1695 l0 -45 40 0 40 0 0 45 0 45 -40 0 -40 0 0 -45z"/>
<path d="M1570 1695 l0 -45 40 0 40 0 0 45 0 45 -40 0 -40 0 0 -45z"/>
<path d="M164 1437 c-2 -7 -3 -74 -2 -148 l3 -134 145 0 145 0 0 40 0 40 -102
3 -103 3 0 104 0 105 -40 0 c-24 0 -43 -5 -46 -13z"/>
<path d="M2310 1346 l0 -105 -102 -3 -103 -3 0 -40 0 -40 145 0 145 0 0 145 0
145 -42 3 -43 3 0 -105z"/>
</g>
</svg>
